# xmcd CD database file
#
# Track frame offsets:
#	150
#	39661
#	69323
#	92561
#	125817
#	161320
#	188377
#	221247
#
# Disc length: 3430 seconds
#
# Revision: 0
# Processed by: cddbd v1.5.2PL0 Copyright (c) Steve Scherf et al.
# Submitted via: CDex 1.70beta2
#
DISCID=680d6408
DTITLE=No Vibrato - Cinq de coeur
DYEAR=1996
DGENRE=Jazz
TTITLE0=Call Me
TTITLE1=Cinq de Coeur
TTITLE2=Fais-moi mal
TTITLE3=I hate flies
TTITLE4=Un jour bleu
TTITLE5=The Revenge
TTITLE6=Epate-moi
TTITLE7=Prétexte pour un mineur blues
EXTD=YEAR: 1996
EXTT0=
EXTT1=
EXTT2=
EXTT3=
EXTT4=
EXTT5=
EXTT6=
EXTT7=
PLAYORDER=
